<?xml version="1.0" standalone="no"?>
<!DOCTYPE svg PUBLIC "-//W3C//DTD SVG 20010904//EN"
 "http://www.w3.org/TR/2001/REC-SVG-20010904/DTD/svg10.dtd">
<svg version="1.0" xmlns="http://www.w3.org/2000/svg"
 width="300.000000pt" height="300.000000pt" viewBox="0 0 300.000000 300.000000"
 preserveAspectRatio="xMidYMid meet">
<metadata>
Created by potrace 1.14, written by Peter Selinger 2001-2017
</metadata>
<g transform="translate(0.000000,300.000000) scale(0.100000,-0.100000)"
fill="#000000" stroke="none">
<path d="M979 2914 c-97 -17 -164 -43 -248 -98 -112 -73 -202 -178 -256 -301
-14 -30 -25 -57 -25 -60 0 -3 0 -6 -1 -7 -23 -77 -30 -225 -14 -316 52 -301
324 -536 635 -547 324 -12 614 218 679 540 21 102 20 178 -3 280 -1 6 -6 26
-10 45 -19 81 -105 219 -184 292 -158 148 -361 209 -573 172z"/>
<path d="M2173 1794 c-83 -19 -144 -53 -208 -118 -66 -66 -98 -121 -120 -206
-51 -190 47 -404 225 -495 166 -85 364 -56 501 72 185 173 184 465 -3 638
-111 103 -252 142 -395 109z"/>
<path d="M1107 673 c-76 -29 -133 -80 -169 -153 -106 -210 51 -450 287 -438
310 16 399 423 124 572 -68 38 -170 45 -242 19z"/>
</g>
</svg>
